%TF.GenerationSoftware,KiCad,Pcbnew,9.0.1*%
%TF.CreationDate,2025-07-08T21:51:01-07:00*%
%TF.ProjectId,DynamicBrakeGrid,44796e61-6d69-4634-9272-616b65477269,rev?*%
%TF.SameCoordinates,Original*%
%TF.FileFunction,Legend,Bot*%
%TF.FilePolarity,Positive*%
%FSLAX46Y46*%
G04 Gerber Fmt 4.6, Leading zero omitted, Abs format (unit mm)*
G04 Created by KiCad (PCBNEW 9.0.1) date 2025-07-08 21:51:01*
%MOMM*%
%LPD*%
G01*
G04 APERTURE LIST*
%ADD10C,0.150000*%
%ADD11C,0.120000*%
G04 APERTURE END LIST*
D10*
X57761904Y-118454819D02*
X57761904Y-117454819D01*
X57761904Y-117931009D02*
X57190476Y-117931009D01*
X57190476Y-118454819D02*
X57190476Y-117454819D01*
X56761904Y-117550057D02*
X56714285Y-117502438D01*
X56714285Y-117502438D02*
X56619047Y-117454819D01*
X56619047Y-117454819D02*
X56380952Y-117454819D01*
X56380952Y-117454819D02*
X56285714Y-117502438D01*
X56285714Y-117502438D02*
X56238095Y-117550057D01*
X56238095Y-117550057D02*
X56190476Y-117645295D01*
X56190476Y-117645295D02*
X56190476Y-117740533D01*
X56190476Y-117740533D02*
X56238095Y-117883390D01*
X56238095Y-117883390D02*
X56809523Y-118454819D01*
X56809523Y-118454819D02*
X56190476Y-118454819D01*
X49392857Y-133659580D02*
X49440476Y-133707200D01*
X49440476Y-133707200D02*
X49583333Y-133754819D01*
X49583333Y-133754819D02*
X49678571Y-133754819D01*
X49678571Y-133754819D02*
X49821428Y-133707200D01*
X49821428Y-133707200D02*
X49916666Y-133611961D01*
X49916666Y-133611961D02*
X49964285Y-133516723D01*
X49964285Y-133516723D02*
X50011904Y-133326247D01*
X50011904Y-133326247D02*
X50011904Y-133183390D01*
X50011904Y-133183390D02*
X49964285Y-132992914D01*
X49964285Y-132992914D02*
X49916666Y-132897676D01*
X49916666Y-132897676D02*
X49821428Y-132802438D01*
X49821428Y-132802438D02*
X49678571Y-132754819D01*
X49678571Y-132754819D02*
X49583333Y-132754819D01*
X49583333Y-132754819D02*
X49440476Y-132802438D01*
X49440476Y-132802438D02*
X49392857Y-132850057D01*
X48821428Y-133183390D02*
X48916666Y-133135771D01*
X48916666Y-133135771D02*
X48964285Y-133088152D01*
X48964285Y-133088152D02*
X49011904Y-132992914D01*
X49011904Y-132992914D02*
X49011904Y-132945295D01*
X49011904Y-132945295D02*
X48964285Y-132850057D01*
X48964285Y-132850057D02*
X48916666Y-132802438D01*
X48916666Y-132802438D02*
X48821428Y-132754819D01*
X48821428Y-132754819D02*
X48630952Y-132754819D01*
X48630952Y-132754819D02*
X48535714Y-132802438D01*
X48535714Y-132802438D02*
X48488095Y-132850057D01*
X48488095Y-132850057D02*
X48440476Y-132945295D01*
X48440476Y-132945295D02*
X48440476Y-132992914D01*
X48440476Y-132992914D02*
X48488095Y-133088152D01*
X48488095Y-133088152D02*
X48535714Y-133135771D01*
X48535714Y-133135771D02*
X48630952Y-133183390D01*
X48630952Y-133183390D02*
X48821428Y-133183390D01*
X48821428Y-133183390D02*
X48916666Y-133231009D01*
X48916666Y-133231009D02*
X48964285Y-133278628D01*
X48964285Y-133278628D02*
X49011904Y-133373866D01*
X49011904Y-133373866D02*
X49011904Y-133564342D01*
X49011904Y-133564342D02*
X48964285Y-133659580D01*
X48964285Y-133659580D02*
X48916666Y-133707200D01*
X48916666Y-133707200D02*
X48821428Y-133754819D01*
X48821428Y-133754819D02*
X48630952Y-133754819D01*
X48630952Y-133754819D02*
X48535714Y-133707200D01*
X48535714Y-133707200D02*
X48488095Y-133659580D01*
X48488095Y-133659580D02*
X48440476Y-133564342D01*
X48440476Y-133564342D02*
X48440476Y-133373866D01*
X48440476Y-133373866D02*
X48488095Y-133278628D01*
X48488095Y-133278628D02*
X48535714Y-133231009D01*
X48535714Y-133231009D02*
X48630952Y-133183390D01*
X47535714Y-132754819D02*
X48011904Y-132754819D01*
X48011904Y-132754819D02*
X48059523Y-133231009D01*
X48059523Y-133231009D02*
X48011904Y-133183390D01*
X48011904Y-133183390D02*
X47916666Y-133135771D01*
X47916666Y-133135771D02*
X47678571Y-133135771D01*
X47678571Y-133135771D02*
X47583333Y-133183390D01*
X47583333Y-133183390D02*
X47535714Y-133231009D01*
X47535714Y-133231009D02*
X47488095Y-133326247D01*
X47488095Y-133326247D02*
X47488095Y-133564342D01*
X47488095Y-133564342D02*
X47535714Y-133659580D01*
X47535714Y-133659580D02*
X47583333Y-133707200D01*
X47583333Y-133707200D02*
X47678571Y-133754819D01*
X47678571Y-133754819D02*
X47916666Y-133754819D01*
X47916666Y-133754819D02*
X48011904Y-133707200D01*
X48011904Y-133707200D02*
X48059523Y-133659580D01*
X49392857Y-129159580D02*
X49440476Y-129207200D01*
X49440476Y-129207200D02*
X49583333Y-129254819D01*
X49583333Y-129254819D02*
X49678571Y-129254819D01*
X49678571Y-129254819D02*
X49821428Y-129207200D01*
X49821428Y-129207200D02*
X49916666Y-129111961D01*
X49916666Y-129111961D02*
X49964285Y-129016723D01*
X49964285Y-129016723D02*
X50011904Y-128826247D01*
X50011904Y-128826247D02*
X50011904Y-128683390D01*
X50011904Y-128683390D02*
X49964285Y-128492914D01*
X49964285Y-128492914D02*
X49916666Y-128397676D01*
X49916666Y-128397676D02*
X49821428Y-128302438D01*
X49821428Y-128302438D02*
X49678571Y-128254819D01*
X49678571Y-128254819D02*
X49583333Y-128254819D01*
X49583333Y-128254819D02*
X49440476Y-128302438D01*
X49440476Y-128302438D02*
X49392857Y-128350057D01*
X48821428Y-128683390D02*
X48916666Y-128635771D01*
X48916666Y-128635771D02*
X48964285Y-128588152D01*
X48964285Y-128588152D02*
X49011904Y-128492914D01*
X49011904Y-128492914D02*
X49011904Y-128445295D01*
X49011904Y-128445295D02*
X48964285Y-128350057D01*
X48964285Y-128350057D02*
X48916666Y-128302438D01*
X48916666Y-128302438D02*
X48821428Y-128254819D01*
X48821428Y-128254819D02*
X48630952Y-128254819D01*
X48630952Y-128254819D02*
X48535714Y-128302438D01*
X48535714Y-128302438D02*
X48488095Y-128350057D01*
X48488095Y-128350057D02*
X48440476Y-128445295D01*
X48440476Y-128445295D02*
X48440476Y-128492914D01*
X48440476Y-128492914D02*
X48488095Y-128588152D01*
X48488095Y-128588152D02*
X48535714Y-128635771D01*
X48535714Y-128635771D02*
X48630952Y-128683390D01*
X48630952Y-128683390D02*
X48821428Y-128683390D01*
X48821428Y-128683390D02*
X48916666Y-128731009D01*
X48916666Y-128731009D02*
X48964285Y-128778628D01*
X48964285Y-128778628D02*
X49011904Y-128873866D01*
X49011904Y-128873866D02*
X49011904Y-129064342D01*
X49011904Y-129064342D02*
X48964285Y-129159580D01*
X48964285Y-129159580D02*
X48916666Y-129207200D01*
X48916666Y-129207200D02*
X48821428Y-129254819D01*
X48821428Y-129254819D02*
X48630952Y-129254819D01*
X48630952Y-129254819D02*
X48535714Y-129207200D01*
X48535714Y-129207200D02*
X48488095Y-129159580D01*
X48488095Y-129159580D02*
X48440476Y-129064342D01*
X48440476Y-129064342D02*
X48440476Y-128873866D01*
X48440476Y-128873866D02*
X48488095Y-128778628D01*
X48488095Y-128778628D02*
X48535714Y-128731009D01*
X48535714Y-128731009D02*
X48630952Y-128683390D01*
X47583333Y-128254819D02*
X47773809Y-128254819D01*
X47773809Y-128254819D02*
X47869047Y-128302438D01*
X47869047Y-128302438D02*
X47916666Y-128350057D01*
X47916666Y-128350057D02*
X48011904Y-128492914D01*
X48011904Y-128492914D02*
X48059523Y-128683390D01*
X48059523Y-128683390D02*
X48059523Y-129064342D01*
X48059523Y-129064342D02*
X48011904Y-129159580D01*
X48011904Y-129159580D02*
X47964285Y-129207200D01*
X47964285Y-129207200D02*
X47869047Y-129254819D01*
X47869047Y-129254819D02*
X47678571Y-129254819D01*
X47678571Y-129254819D02*
X47583333Y-129207200D01*
X47583333Y-129207200D02*
X47535714Y-129159580D01*
X47535714Y-129159580D02*
X47488095Y-129064342D01*
X47488095Y-129064342D02*
X47488095Y-128826247D01*
X47488095Y-128826247D02*
X47535714Y-128731009D01*
X47535714Y-128731009D02*
X47583333Y-128683390D01*
X47583333Y-128683390D02*
X47678571Y-128635771D01*
X47678571Y-128635771D02*
X47869047Y-128635771D01*
X47869047Y-128635771D02*
X47964285Y-128683390D01*
X47964285Y-128683390D02*
X48011904Y-128731009D01*
X48011904Y-128731009D02*
X48059523Y-128826247D01*
X40892857Y-128059580D02*
X40940476Y-128107200D01*
X40940476Y-128107200D02*
X41083333Y-128154819D01*
X41083333Y-128154819D02*
X41178571Y-128154819D01*
X41178571Y-128154819D02*
X41321428Y-128107200D01*
X41321428Y-128107200D02*
X41416666Y-128011961D01*
X41416666Y-128011961D02*
X41464285Y-127916723D01*
X41464285Y-127916723D02*
X41511904Y-127726247D01*
X41511904Y-127726247D02*
X41511904Y-127583390D01*
X41511904Y-127583390D02*
X41464285Y-127392914D01*
X41464285Y-127392914D02*
X41416666Y-127297676D01*
X41416666Y-127297676D02*
X41321428Y-127202438D01*
X41321428Y-127202438D02*
X41178571Y-127154819D01*
X41178571Y-127154819D02*
X41083333Y-127154819D01*
X41083333Y-127154819D02*
X40940476Y-127202438D01*
X40940476Y-127202438D02*
X40892857Y-127250057D01*
X40035714Y-127154819D02*
X40226190Y-127154819D01*
X40226190Y-127154819D02*
X40321428Y-127202438D01*
X40321428Y-127202438D02*
X40369047Y-127250057D01*
X40369047Y-127250057D02*
X40464285Y-127392914D01*
X40464285Y-127392914D02*
X40511904Y-127583390D01*
X40511904Y-127583390D02*
X40511904Y-127964342D01*
X40511904Y-127964342D02*
X40464285Y-128059580D01*
X40464285Y-128059580D02*
X40416666Y-128107200D01*
X40416666Y-128107200D02*
X40321428Y-128154819D01*
X40321428Y-128154819D02*
X40130952Y-128154819D01*
X40130952Y-128154819D02*
X40035714Y-128107200D01*
X40035714Y-128107200D02*
X39988095Y-128059580D01*
X39988095Y-128059580D02*
X39940476Y-127964342D01*
X39940476Y-127964342D02*
X39940476Y-127726247D01*
X39940476Y-127726247D02*
X39988095Y-127631009D01*
X39988095Y-127631009D02*
X40035714Y-127583390D01*
X40035714Y-127583390D02*
X40130952Y-127535771D01*
X40130952Y-127535771D02*
X40321428Y-127535771D01*
X40321428Y-127535771D02*
X40416666Y-127583390D01*
X40416666Y-127583390D02*
X40464285Y-127631009D01*
X40464285Y-127631009D02*
X40511904Y-127726247D01*
X39607142Y-127154819D02*
X38940476Y-127154819D01*
X38940476Y-127154819D02*
X39369047Y-128154819D01*
X35642857Y-128109580D02*
X35690476Y-128157200D01*
X35690476Y-128157200D02*
X35833333Y-128204819D01*
X35833333Y-128204819D02*
X35928571Y-128204819D01*
X35928571Y-128204819D02*
X36071428Y-128157200D01*
X36071428Y-128157200D02*
X36166666Y-128061961D01*
X36166666Y-128061961D02*
X36214285Y-127966723D01*
X36214285Y-127966723D02*
X36261904Y-127776247D01*
X36261904Y-127776247D02*
X36261904Y-127633390D01*
X36261904Y-127633390D02*
X36214285Y-127442914D01*
X36214285Y-127442914D02*
X36166666Y-127347676D01*
X36166666Y-127347676D02*
X36071428Y-127252438D01*
X36071428Y-127252438D02*
X35928571Y-127204819D01*
X35928571Y-127204819D02*
X35833333Y-127204819D01*
X35833333Y-127204819D02*
X35690476Y-127252438D01*
X35690476Y-127252438D02*
X35642857Y-127300057D01*
X34785714Y-127204819D02*
X34976190Y-127204819D01*
X34976190Y-127204819D02*
X35071428Y-127252438D01*
X35071428Y-127252438D02*
X35119047Y-127300057D01*
X35119047Y-127300057D02*
X35214285Y-127442914D01*
X35214285Y-127442914D02*
X35261904Y-127633390D01*
X35261904Y-127633390D02*
X35261904Y-128014342D01*
X35261904Y-128014342D02*
X35214285Y-128109580D01*
X35214285Y-128109580D02*
X35166666Y-128157200D01*
X35166666Y-128157200D02*
X35071428Y-128204819D01*
X35071428Y-128204819D02*
X34880952Y-128204819D01*
X34880952Y-128204819D02*
X34785714Y-128157200D01*
X34785714Y-128157200D02*
X34738095Y-128109580D01*
X34738095Y-128109580D02*
X34690476Y-128014342D01*
X34690476Y-128014342D02*
X34690476Y-127776247D01*
X34690476Y-127776247D02*
X34738095Y-127681009D01*
X34738095Y-127681009D02*
X34785714Y-127633390D01*
X34785714Y-127633390D02*
X34880952Y-127585771D01*
X34880952Y-127585771D02*
X35071428Y-127585771D01*
X35071428Y-127585771D02*
X35166666Y-127633390D01*
X35166666Y-127633390D02*
X35214285Y-127681009D01*
X35214285Y-127681009D02*
X35261904Y-127776247D01*
X34119047Y-127633390D02*
X34214285Y-127585771D01*
X34214285Y-127585771D02*
X34261904Y-127538152D01*
X34261904Y-127538152D02*
X34309523Y-127442914D01*
X34309523Y-127442914D02*
X34309523Y-127395295D01*
X34309523Y-127395295D02*
X34261904Y-127300057D01*
X34261904Y-127300057D02*
X34214285Y-127252438D01*
X34214285Y-127252438D02*
X34119047Y-127204819D01*
X34119047Y-127204819D02*
X33928571Y-127204819D01*
X33928571Y-127204819D02*
X33833333Y-127252438D01*
X33833333Y-127252438D02*
X33785714Y-127300057D01*
X33785714Y-127300057D02*
X33738095Y-127395295D01*
X33738095Y-127395295D02*
X33738095Y-127442914D01*
X33738095Y-127442914D02*
X33785714Y-127538152D01*
X33785714Y-127538152D02*
X33833333Y-127585771D01*
X33833333Y-127585771D02*
X33928571Y-127633390D01*
X33928571Y-127633390D02*
X34119047Y-127633390D01*
X34119047Y-127633390D02*
X34214285Y-127681009D01*
X34214285Y-127681009D02*
X34261904Y-127728628D01*
X34261904Y-127728628D02*
X34309523Y-127823866D01*
X34309523Y-127823866D02*
X34309523Y-128014342D01*
X34309523Y-128014342D02*
X34261904Y-128109580D01*
X34261904Y-128109580D02*
X34214285Y-128157200D01*
X34214285Y-128157200D02*
X34119047Y-128204819D01*
X34119047Y-128204819D02*
X33928571Y-128204819D01*
X33928571Y-128204819D02*
X33833333Y-128157200D01*
X33833333Y-128157200D02*
X33785714Y-128109580D01*
X33785714Y-128109580D02*
X33738095Y-128014342D01*
X33738095Y-128014342D02*
X33738095Y-127823866D01*
X33738095Y-127823866D02*
X33785714Y-127728628D01*
X33785714Y-127728628D02*
X33833333Y-127681009D01*
X33833333Y-127681009D02*
X33928571Y-127633390D01*
D11*
%TO.C,C85*%
X48038748Y-129640000D02*
X49461252Y-129640000D01*
X48038748Y-132360000D02*
X49461252Y-132360000D01*
%TO.C,C86*%
X48038748Y-125140000D02*
X49461252Y-125140000D01*
X48038748Y-127860000D02*
X49461252Y-127860000D01*
%TO.C,C67*%
X40961252Y-128640000D02*
X39538748Y-128640000D01*
X40961252Y-131360000D02*
X39538748Y-131360000D01*
%TO.C,C68*%
X34288748Y-128640000D02*
X35711252Y-128640000D01*
X34288748Y-131360000D02*
X35711252Y-131360000D01*
%TD*%
M02*
