%TF.GenerationSoftware,KiCad,Pcbnew,9.0.1*%
%TF.CreationDate,2025-07-08T21:51:02-07:00*%
%TF.ProjectId,DynamicBrakeGrid,44796e61-6d69-4634-9272-616b65477269,rev?*%
%TF.SameCoordinates,Original*%
%TF.FileFunction,Soldermask,Top*%
%TF.FilePolarity,Negative*%
%FSLAX46Y46*%
G04 Gerber Fmt 4.6, Leading zero omitted, Abs format (unit mm)*
G04 Created by KiCad (PCBNEW 9.0.1) date 2025-07-08 21:51:02*
%MOMM*%
%LPD*%
G01*
G04 APERTURE LIST*
G04 Aperture macros list*
%AMRoundRect*
0 Rectangle with rounded corners*
0 $1 Rounding radius*
0 $2 $3 $4 $5 $6 $7 $8 $9 X,Y pos of 4 corners*
0 Add a 4 corners polygon primitive as box body*
4,1,4,$2,$3,$4,$5,$6,$7,$8,$9,$2,$3,0*
0 Add four circle primitives for the rounded corners*
1,1,$1+$1,$2,$3*
1,1,$1+$1,$4,$5*
1,1,$1+$1,$6,$7*
1,1,$1+$1,$8,$9*
0 Add four rect primitives between the rounded corners*
20,1,$1+$1,$2,$3,$4,$5,0*
20,1,$1+$1,$4,$5,$6,$7,0*
20,1,$1+$1,$6,$7,$8,$9,0*
20,1,$1+$1,$8,$9,$2,$3,0*%
G04 Aperture macros list end*
%ADD10R,1.650000X1.650000*%
%ADD11C,1.650000*%
%ADD12C,5.940000*%
%ADD13R,3.300000X1.200000*%
%ADD14RoundRect,0.250000X-1.075000X0.400000X-1.075000X-0.400000X1.075000X-0.400000X1.075000X0.400000X0*%
%ADD15C,1.100000*%
%ADD16R,2.030000X1.730000*%
%ADD17O,2.030000X1.730000*%
%ADD18RoundRect,0.250000X1.100000X-0.412500X1.100000X0.412500X-1.100000X0.412500X-1.100000X-0.412500X0*%
%ADD19RoundRect,0.250000X-1.100000X0.412500X-1.100000X-0.412500X1.100000X-0.412500X1.100000X0.412500X0*%
%ADD20R,1.950000X1.950000*%
%ADD21C,1.950000*%
%ADD22RoundRect,0.250000X0.412500X1.100000X-0.412500X1.100000X-0.412500X-1.100000X0.412500X-1.100000X0*%
%ADD23R,1.397000X2.286000*%
%ADD24R,5.690000X6.180000*%
%ADD25RoundRect,0.250000X-0.400000X-1.075000X0.400000X-1.075000X0.400000X1.075000X-0.400000X1.075000X0*%
%ADD26RoundRect,0.250000X-0.412500X-1.100000X0.412500X-1.100000X0.412500X1.100000X-0.412500X1.100000X0*%
%ADD27R,0.850000X1.050000*%
%ADD28RoundRect,0.250000X0.400000X1.075000X-0.400000X1.075000X-0.400000X-1.075000X0.400000X-1.075000X0*%
%ADD29R,1.475000X0.450000*%
%ADD30R,1.750000X1.000000*%
%ADD31R,1.200000X1.200000*%
%ADD32C,1.200000*%
%ADD33R,3.050000X2.030000*%
%ADD34R,8.380000X10.660000*%
%ADD35C,9.500000*%
%ADD36R,2.290000X2.720000*%
%ADD37C,1.500000*%
%ADD38R,1.700000X1.700000*%
%ADD39O,1.700000X1.700000*%
%ADD40R,1.050000X0.850000*%
%ADD41R,1.528000X0.650000*%
%ADD42RoundRect,0.250000X1.075000X-0.400000X1.075000X0.400000X-1.075000X0.400000X-1.075000X-0.400000X0*%
%ADD43R,1.600000X1.600000*%
%ADD44O,1.600000X1.600000*%
%ADD45R,1.850000X0.650000*%
%ADD46R,1.350000X0.900000*%
%ADD47C,1.725000*%
G04 APERTURE END LIST*
D10*
%TO.C,J27*%
X101000000Y-113000000D03*
D11*
X101000000Y-109500000D03*
X101000000Y-106000000D03*
%TD*%
D12*
%TO.C,J18*%
X141725000Y-109350000D03*
X154725000Y-96650000D03*
%TD*%
D13*
%TO.C,R68*%
X131000000Y-113000000D03*
X131000000Y-119000000D03*
%TD*%
D14*
%TO.C,R72*%
X138523250Y-70990000D03*
X138523250Y-74090000D03*
%TD*%
D15*
%TO.C,M2*%
X100000000Y-60000000D03*
D16*
X102160000Y-65080000D03*
D17*
X102160000Y-62540000D03*
X102160000Y-60000000D03*
X102160000Y-57460000D03*
%TD*%
D12*
%TO.C,J13*%
X141725000Y-139850000D03*
X154725000Y-127150000D03*
%TD*%
D18*
%TO.C,C65*%
X46500000Y-115062500D03*
X46500000Y-111937500D03*
%TD*%
D19*
%TO.C,C34*%
X102000000Y-117437500D03*
X102000000Y-120562500D03*
%TD*%
D20*
%TO.C,J1*%
X58000000Y-138000000D03*
D21*
X53000000Y-138000000D03*
%TD*%
D22*
%TO.C,C105*%
X48562500Y-82000000D03*
X45437500Y-82000000D03*
%TD*%
D18*
%TO.C,C59*%
X63000000Y-72062500D03*
X63000000Y-68937500D03*
%TD*%
D20*
%TO.C,J3*%
X99500000Y-136500000D03*
D21*
X104500000Y-136500000D03*
%TD*%
D23*
%TO.C,Q1*%
X166714000Y-65399000D03*
X171286000Y-65399000D03*
D24*
X169000000Y-59000000D03*
%TD*%
D19*
%TO.C,C32*%
X97000000Y-117375000D03*
X97000000Y-120500000D03*
%TD*%
%TO.C,C62*%
X62000000Y-63437500D03*
X62000000Y-66562500D03*
%TD*%
D25*
%TO.C,R60*%
X5500000Y-109750000D03*
X8600000Y-109750000D03*
%TD*%
D26*
%TO.C,C63*%
X148398250Y-61540000D03*
X151523250Y-61540000D03*
%TD*%
D18*
%TO.C,C89*%
X36000000Y-110812500D03*
X36000000Y-107687500D03*
%TD*%
D10*
%TO.C,J26*%
X117000000Y-113000000D03*
D11*
X117000000Y-109500000D03*
X117000000Y-106000000D03*
%TD*%
D15*
%TO.C,M3*%
X100000000Y-45720000D03*
D16*
X102160000Y-50800000D03*
D17*
X102160000Y-48260000D03*
X102160000Y-45720000D03*
X102160000Y-43180000D03*
%TD*%
D26*
%TO.C,C95*%
X10000000Y-120000000D03*
X13125000Y-120000000D03*
%TD*%
D22*
%TO.C,C82*%
X150080750Y-76905000D03*
X146955750Y-76905000D03*
%TD*%
D20*
%TO.C,J4*%
X163500000Y-38500000D03*
D21*
X168500000Y-38500000D03*
%TD*%
D14*
%TO.C,R62*%
X113000000Y-126900000D03*
X113000000Y-130000000D03*
%TD*%
D18*
%TO.C,C84*%
X58000000Y-80500000D03*
X58000000Y-77375000D03*
%TD*%
D27*
%TO.C,Z4*%
X155000000Y-59000000D03*
X155000000Y-62600000D03*
%TD*%
D25*
%TO.C,R71*%
X130450000Y-84000000D03*
X133550000Y-84000000D03*
%TD*%
D28*
%TO.C,R74*%
X170550000Y-70000000D03*
X167450000Y-70000000D03*
%TD*%
D18*
%TO.C,C73*%
X78000000Y-80562500D03*
X78000000Y-77437500D03*
%TD*%
D29*
%TO.C,IC6*%
X36000000Y-115450000D03*
X36000000Y-116100000D03*
X36000000Y-116750000D03*
X36000000Y-117400000D03*
X36000000Y-118050000D03*
X36000000Y-118700000D03*
X36000000Y-119350000D03*
X36000000Y-120000000D03*
X36000000Y-120650000D03*
X36000000Y-121300000D03*
X41876000Y-121300000D03*
X41876000Y-120650000D03*
X41876000Y-120000000D03*
X41876000Y-119350000D03*
X41876000Y-118700000D03*
X41876000Y-118050000D03*
X41876000Y-117400000D03*
X41876000Y-116750000D03*
X41876000Y-116100000D03*
X41876000Y-115450000D03*
%TD*%
D30*
%TO.C,LED1*%
X113000000Y-136450000D03*
X113000000Y-133450000D03*
%TD*%
%TO.C,LED2*%
X118500000Y-136450000D03*
X118500000Y-133450000D03*
%TD*%
D10*
%TO.C,J28*%
X83050000Y-113000000D03*
D11*
X83050000Y-109500000D03*
X83050000Y-106000000D03*
%TD*%
D10*
%TO.C,J15*%
X27500000Y-142500000D03*
D11*
X31000000Y-142500000D03*
X34500000Y-142500000D03*
%TD*%
D10*
%TO.C,J9*%
X70000000Y-70800000D03*
D11*
X70000000Y-74300000D03*
X70000000Y-77800000D03*
%TD*%
D31*
%TO.C,C4*%
X117000000Y-32000000D03*
D32*
X112000000Y-32000000D03*
%TD*%
D10*
%TO.C,J14*%
X14500000Y-142500000D03*
D11*
X18000000Y-142500000D03*
X21500000Y-142500000D03*
%TD*%
D33*
%TO.C,D1*%
X79384000Y-135460000D03*
X79384000Y-140540000D03*
D34*
X88000000Y-138000000D03*
%TD*%
D26*
%TO.C,C69*%
X130387500Y-88500000D03*
X133512500Y-88500000D03*
%TD*%
D13*
%TO.C,R67*%
X131000000Y-128000000D03*
X131000000Y-122000000D03*
%TD*%
D35*
%TO.C,H1*%
X12500000Y-35000000D03*
%TD*%
D36*
%TO.C,Z1*%
X105000000Y-125000000D03*
X100950000Y-125000000D03*
%TD*%
D14*
%TO.C,R2*%
X62500000Y-31900000D03*
X62500000Y-35000000D03*
%TD*%
D25*
%TO.C,R73*%
X151000000Y-50000000D03*
X154100000Y-50000000D03*
%TD*%
D10*
%TO.C,J5*%
X70000000Y-30300000D03*
D11*
X70000000Y-33800000D03*
X70000000Y-37300000D03*
%TD*%
D37*
%TO.C,Y1*%
X35500000Y-126000000D03*
X40380000Y-126000000D03*
%TD*%
D20*
%TO.C,J2*%
X71100000Y-138000000D03*
D21*
X66100000Y-138000000D03*
%TD*%
D10*
%TO.C,J12*%
X85000000Y-51300000D03*
D11*
X85000000Y-47800000D03*
X85000000Y-44300000D03*
%TD*%
D10*
%TO.C,J25*%
X85000000Y-37800000D03*
D11*
X85000000Y-34300000D03*
X85000000Y-30800000D03*
%TD*%
D38*
%TO.C,JP1*%
X5500000Y-115975000D03*
D39*
X5500000Y-118515000D03*
%TD*%
D13*
%TO.C,R65*%
X131000000Y-147000000D03*
X131000000Y-141000000D03*
%TD*%
D40*
%TO.C,Z3*%
X139323250Y-66540000D03*
X135723250Y-66540000D03*
%TD*%
D18*
%TO.C,C71*%
X78000000Y-53562500D03*
X78000000Y-50437500D03*
%TD*%
%TO.C,C70*%
X78000000Y-40062500D03*
X78000000Y-36937500D03*
%TD*%
D22*
%TO.C,C93*%
X14125000Y-108000000D03*
X11000000Y-108000000D03*
%TD*%
D13*
%TO.C,R69*%
X131000000Y-110000000D03*
X131000000Y-104000000D03*
%TD*%
D10*
%TO.C,J7*%
X70000000Y-43800000D03*
D11*
X70000000Y-47300000D03*
X70000000Y-50800000D03*
%TD*%
D41*
%TO.C,IC5*%
X143514750Y-69730000D03*
X143514750Y-71000000D03*
X143514750Y-72270000D03*
X143514750Y-73540000D03*
X148936750Y-73540000D03*
X148936750Y-72270000D03*
X148936750Y-71000000D03*
X148936750Y-69730000D03*
%TD*%
D26*
%TO.C,C94*%
X18000000Y-120000000D03*
X21125000Y-120000000D03*
%TD*%
D14*
%TO.C,R4*%
X94000000Y-103450000D03*
X94000000Y-106550000D03*
%TD*%
D10*
%TO.C,J24*%
X70000000Y-84300000D03*
D11*
X70000000Y-87800000D03*
X70000000Y-91300000D03*
%TD*%
D31*
%TO.C,C5*%
X117000000Y-45000000D03*
D32*
X112000000Y-45000000D03*
%TD*%
D42*
%TO.C,R76*%
X154000000Y-45550000D03*
X154000000Y-42450000D03*
%TD*%
D10*
%TO.C,J6*%
X85000000Y-91800000D03*
D11*
X85000000Y-88300000D03*
X85000000Y-84800000D03*
%TD*%
D26*
%TO.C,C64*%
X148398250Y-66540000D03*
X151523250Y-66540000D03*
%TD*%
D43*
%TO.C,A1*%
X52130000Y-53825000D03*
D44*
X52130000Y-56365000D03*
X52130000Y-58905000D03*
X52130000Y-61445000D03*
X52130000Y-63985000D03*
X52130000Y-66525000D03*
X52130000Y-69065000D03*
X52130000Y-71605000D03*
X52130000Y-76685000D03*
X52130000Y-79225000D03*
X52130000Y-81765000D03*
X52130000Y-84305000D03*
X52130000Y-86845000D03*
X52130000Y-89385000D03*
X3870000Y-89385000D03*
X3870000Y-86845000D03*
X3870000Y-84305000D03*
X3870000Y-81765000D03*
X3870000Y-79225000D03*
X3870000Y-76685000D03*
X3870000Y-74145000D03*
X3870000Y-71605000D03*
X3870000Y-67545000D03*
X3870000Y-65005000D03*
X3870000Y-62465000D03*
X3870000Y-59925000D03*
X3870000Y-57385000D03*
X3870000Y-54845000D03*
X3870000Y-52305000D03*
X3870000Y-49765000D03*
X3870000Y-47225000D03*
X3870000Y-44685000D03*
%TD*%
D22*
%TO.C,C88*%
X142562500Y-56000000D03*
X139437500Y-56000000D03*
%TD*%
D45*
%TO.C,IC1*%
X32325000Y-114905000D03*
X32325000Y-113635000D03*
X32325000Y-112365000D03*
X32325000Y-111095000D03*
X21675000Y-111095000D03*
X21675000Y-112365000D03*
X21675000Y-113635000D03*
X21675000Y-114905000D03*
%TD*%
D20*
%TO.C,J16*%
X126000000Y-38500000D03*
D21*
X131000000Y-38500000D03*
%TD*%
D26*
%TO.C,C81*%
X139523250Y-62540000D03*
X142648250Y-62540000D03*
%TD*%
D46*
%TO.C,FL1*%
X18275000Y-114250000D03*
X18275000Y-111750000D03*
X13725000Y-111750000D03*
X13725000Y-114250000D03*
%TD*%
D25*
%TO.C,R59*%
X47950000Y-119000000D03*
X51050000Y-119000000D03*
%TD*%
D35*
%TO.C,H2*%
X57000000Y-124000000D03*
%TD*%
D26*
%TO.C,C101*%
X93437500Y-100000000D03*
X96562500Y-100000000D03*
%TD*%
D35*
%TO.C,H9*%
X154000000Y-33000000D03*
%TD*%
D47*
%TO.C,PS1*%
X47075000Y-135615000D03*
X44535000Y-135615000D03*
X36915000Y-135615000D03*
X31835000Y-135615000D03*
%TD*%
D25*
%TO.C,R64*%
X157000000Y-50000000D03*
X160100000Y-50000000D03*
%TD*%
D42*
%TO.C,R75*%
X168000000Y-51550000D03*
X168000000Y-48450000D03*
%TD*%
D10*
%TO.C,J8*%
X70000000Y-57300000D03*
D11*
X70000000Y-60800000D03*
X70000000Y-64300000D03*
%TD*%
D27*
%TO.C,Z2*%
X155000000Y-53200000D03*
X155000000Y-56800000D03*
%TD*%
D19*
%TO.C,C61*%
X57000000Y-63375000D03*
X57000000Y-66500000D03*
%TD*%
D22*
%TO.C,C83*%
X48125000Y-77000000D03*
X45000000Y-77000000D03*
%TD*%
D15*
%TO.C,M8*%
X100000000Y-31000000D03*
D16*
X102160000Y-36080000D03*
D17*
X102160000Y-33540000D03*
X102160000Y-31000000D03*
X102160000Y-28460000D03*
%TD*%
D20*
%TO.C,J17*%
X138000000Y-38500000D03*
D21*
X143000000Y-38500000D03*
%TD*%
D10*
%TO.C,J10*%
X85000000Y-78300000D03*
D11*
X85000000Y-74800000D03*
X85000000Y-71300000D03*
%TD*%
D31*
%TO.C,C3*%
X117000000Y-58000000D03*
D32*
X112000000Y-58000000D03*
%TD*%
D14*
%TO.C,R1*%
X62500000Y-38450000D03*
X62500000Y-41550000D03*
%TD*%
%TO.C,R5*%
X76000000Y-103450000D03*
X76000000Y-106550000D03*
%TD*%
D19*
%TO.C,C90*%
X39750000Y-107625000D03*
X39750000Y-110750000D03*
%TD*%
D35*
%TO.C,H8*%
X169000000Y-80000000D03*
%TD*%
D13*
%TO.C,R66*%
X131000000Y-132000000D03*
X131000000Y-138000000D03*
%TD*%
D26*
%TO.C,C92*%
X16937500Y-108000000D03*
X20062500Y-108000000D03*
%TD*%
D10*
%TO.C,J11*%
X85000000Y-64800000D03*
D11*
X85000000Y-61300000D03*
X85000000Y-57800000D03*
%TD*%
D18*
%TO.C,C66*%
X51500000Y-115125000D03*
X51500000Y-112000000D03*
%TD*%
%TO.C,C72*%
X78000000Y-67562500D03*
X78000000Y-64437500D03*
%TD*%
D14*
%TO.C,R63*%
X118500000Y-126900000D03*
X118500000Y-130000000D03*
%TD*%
D13*
%TO.C,R70*%
X131000000Y-95000000D03*
X131000000Y-101000000D03*
%TD*%
D35*
%TO.C,H7*%
X169000000Y-144000000D03*
%TD*%
D31*
%TO.C,C2*%
X117000000Y-71000000D03*
D32*
X112000000Y-71000000D03*
%TD*%
D14*
%TO.C,R3*%
X110000000Y-103450000D03*
X110000000Y-106550000D03*
%TD*%
D15*
%TO.C,M1*%
X100000000Y-74000000D03*
D16*
X102160000Y-79080000D03*
D17*
X102160000Y-76540000D03*
X102160000Y-74000000D03*
X102160000Y-71460000D03*
%TD*%
D35*
%TO.C,H3*%
X6000000Y-144000000D03*
%TD*%
D18*
%TO.C,C60*%
X58000000Y-72125000D03*
X58000000Y-69000000D03*
%TD*%
D26*
%TO.C,C91*%
X22437500Y-108000000D03*
X25562500Y-108000000D03*
%TD*%
M02*
